<?xml version="1.0" encoding="utf-8"?>
<!-- Generator: Adobe Illustrator 27.5.0, SVG Export Plug-In . SVG Version: 6.00 Build 0)  -->
<svg version="1.1" id="Layer_1" xmlns="http://www.w3.org/2000/svg" xmlns:xlink="http://www.w3.org/1999/xlink" x="0px" y="0px"
	 viewBox="0 0 550 550" style="enable-background:new 0 0 550 550;" xml:space="preserve">
<linearGradient id="SVGID_1_" gradientUnits="userSpaceOnUse" x1="275" y1="517" x2="275" y2="37" gradientTransform="matrix(1 0 0 -1 0 552)">
	<stop  offset="0" style="stop-color:#126BFF"/>
	<stop  offset="1" style="stop-color:#C61BFF"/>
</linearGradient>
<circle style="fill:url(#SVGID_1_);" cx="275" cy="275" r="240"/>
<g id="_x31_2466_-_Organize">
	<g>
		<polygon style="fill:#FFFFFF;" points="234.319,145.884 204.621,175.581 234.319,175.581 		"/>
		<path style="fill:#FFFFFF;" d="M243.392,139.471v40.648c0,2.507-2.03,4.537-4.536,4.537h-40.648V410.53h153.585V139.471H243.392z
			 M256.928,148.47h81.329c2.507,0,4.537,2.03,4.537,4.536s-2.03,4.537-4.537,4.537h-81.329c-2.506,0-4.536-2.03-4.536-4.537
			C252.391,150.5,254.421,148.47,256.928,148.47z M256.928,166.543h81.329c2.507,0,4.537,2.03,4.537,4.537s-2.03,4.537-4.537,4.537
			h-81.329c-2.506,0-4.536-2.03-4.536-4.537S254.421,166.543,256.928,166.543z M338.257,189.152v18.072h-81.329v-18.072H338.257z
			 M270.498,392.474c0,2.507-2.03,4.537-4.537,4.537h-18.072c-2.507,0-4.537-2.03-4.537-4.537v-27.112
			c0-2.501,2.03-4.537,4.537-4.537h18.072c2.507,0,4.537,2.036,4.537,4.537V392.474z M306.648,392.474
			c0,2.507-2.036,4.537-4.536,4.537H284.04c-2.506,0-4.536-2.03-4.536-4.537v-27.112c0-2.501,2.03-4.537,4.536-4.537h18.072
			c2.501,0,4.536,2.036,4.536,4.537V392.474z M347.313,324.704c0,2.501-2.036,4.537-4.537,4.537h-18.055v13.513h4.497
			c2.506,0,4.536,2.036,4.536,4.537v13.536h4.502c2.507,0,4.537,2.036,4.537,4.537v27.112c0,2.507-2.03,4.537-4.537,4.537h-18.072
			c-2.507,0-4.537-2.03-4.537-4.537v-27.112c0-2.501,2.03-4.537,4.537-4.537h4.497v-8.999h-99.362v8.999h4.497
			c2.506,0,4.536,2.036,4.536,4.537v27.112c0,2.507-2.03,4.537-4.536,4.537h-18.072c-2.506,0-4.536-2.03-4.536-4.537v-27.112
			c0-2.501,2.03-4.537,4.536-4.537h4.502v-13.536c0-2.501,2.03-4.537,4.537-4.537h4.497v-13.513h-13.536
			c-2.506,0-4.536-2.036-4.536-4.537v-27.112c0-2.507,2.03-4.537,4.536-4.537h9.017v-13.536c0-2.507,2.036-4.537,4.536-4.537h45.167
			v-8.999h-13.536c-2.506,0-4.536-2.03-4.536-4.536v-27.112c0-2.506,2.03-4.536,4.536-4.536h36.145c2.506,0,4.536,2.03,4.536,4.536
			v27.112c0,2.507-2.03,4.536-4.536,4.536h-13.536v8.999h45.167c2.501,0,4.536,2.03,4.536,4.537v13.536h13.536
			c2.501,0,4.537,2.03,4.537,4.537V324.704L347.313,324.704z"/>
		<path style="fill:#FFFFFF;" d="M252.391,324.704v-27.112c0-2.507,2.03-4.537,4.536-4.537h13.536v-8.999h-40.631v8.999h13.542
			c2.501,0,4.536,2.03,4.536,4.537v27.112c0,2.501-2.036,4.537-4.536,4.537h-9.022v13.513h36.111v-13.513h-13.536
			C254.421,329.24,252.391,327.204,252.391,324.704z"/>
		<path style="fill:#FFFFFF;" d="M302.089,324.704v-27.112c0-2.507,2.036-4.537,4.537-4.537h13.542v-8.999h-40.631v8.999h13.536
			c2.506,0,4.536,2.03,4.536,4.537v27.112c0,2.501-2.03,4.537-4.536,4.537h-13.536v13.513h36.111v-13.513h-9.022
			C304.125,329.24,302.089,327.204,302.089,324.704z"/>
		<rect x="261.464" y="238.872" style="fill:#FFFFFF;" width="27.072" height="18.038"/>
		<rect x="216.28" y="302.128" style="fill:#FFFFFF;" width="22.558" height="18.038"/>
		<rect x="261.464" y="302.128" style="fill:#FFFFFF;" width="27.072" height="18.038"/>
		<rect x="311.162" y="302.128" style="fill:#FFFFFF;" width="27.078" height="18.038"/>
		<rect x="216.28" y="369.899" style="fill:#FFFFFF;" width="8.999" height="18.038"/>
		<rect x="252.425" y="369.899" style="fill:#FFFFFF;" width="8.999" height="18.038"/>
		<rect x="288.576" y="369.899" style="fill:#FFFFFF;" width="8.999" height="18.038"/>
		<rect x="324.721" y="369.899" style="fill:#FFFFFF;" width="8.999" height="18.038"/>
	</g>
</g>
</svg>
